<svg width="1118" height="176" viewBox="0 0 1118 176" fill="none" xmlns="http://www.w3.org/2000/svg">
<rect x="4" width="1110" height="168" rx="10" fill="#3A3054"/>
<mask id="mask0_0_882" style="mask-type:luminance" maskUnits="userSpaceOnUse" x="4" y="0" width="1110" height="168">
<rect x="4" width="1110" height="168" rx="10" fill="white"/>
</mask>
<g mask="url(#mask0_0_882)">
<path fill-rule="evenodd" clip-rule="evenodd" d="M651 -93.9235C651 -41.2004 666.5 -3.43848 724 20.9529C781.5 45.3442 837.055 23.0865 892.786 35.847C948.517 48.6075 948.517 130.809 1001 181.396C1053.48 231.983 1164.14 244.27 1254.12 192.948C1344.1 141.626 1384.88 21.7965 1358 -48.8591C1331.12 -119.515 1279.59 -184 1031 -184C782.407 -184 651 -146.647 651 -93.9235Z" fill="#4B3F6B"/>
<path fill-rule="evenodd" clip-rule="evenodd" d="M-130 119.076C-130 171.8 -114.5 209.562 -57 233.953C0.5 258.344 56.055 236.087 111.786 248.847C167.517 261.608 167.517 343.809 220 394.396C272.483 444.983 383.142 457.27 473.119 405.948C563.096 354.626 603.885 234.796 577 164.141C550.115 93.4854 498.593 29 250 29C1.40686 29 -130 66.3533 -130 119.076Z" fill="#4B3F6B"/>
</g>
</svg>
